<svg xmlns="http://www.w3.org/2000/svg" width="128" height="128" viewBox="0 0 128 128">
  <title>CURRENCY EXCHANGE</title>
  <g>
    <polygon points="71.532 45.864 84.173 45.864 84.173 54.321 97.494 41 84.173 27.679 84.173 36.136 71.532 36.136 71.532 45.864" fill="#64d465"/>
    <polygon points="56.468 82.136 43.827 82.136 43.827 73.679 30.506 87 43.827 100.321 43.827 91.864 56.468 91.864 56.468 82.136" fill="#7fb3fa"/>
    <circle cx="30.506" cy="41" r="24.199" transform="translate(-10.247 10.164) rotate(-16.236)" fill="#f4dd45"/>
    <circle cx="30.506" cy="41" r="16.6" transform="translate(-8.604 8.106) rotate(-13.282)" fill="#fcc101"/>
    <circle cx="97.494" cy="87" r="24.199" transform="translate(-17.38 24.727) rotate(-13.283)" fill="#f4dd45"/>
    <circle cx="97.494" cy="87" r="16.6" transform="translate(-16.841 23.742) rotate(-12.79)" fill="#fcc101"/>
    <path d="M31.867,51v1.815H29.286v-1.9a11.629,11.629,0,0,1-6.609-3.035l2.043-2.525a9.693,9.693,0,0,0,4.566,2.439V42.262c-3.489-.908-5.843-2.156-5.843-5.5,0-3.063,2.354-5.418,5.843-5.843V29.185h2.581v1.759a10.552,10.552,0,0,1,5.957,2.638L35.9,36.192a9.271,9.271,0,0,0-4.029-2.128V39.4c3.887.88,6.468,2.213,6.468,5.673C38.335,48.332,35.981,50.715,31.867,51ZM29.286,38.716V34.008a2.678,2.678,0,0,0-2.269,2.439C27.017,37.582,27.755,38.178,29.286,38.716Zm5.5,6.7c0-1.3-.907-1.9-2.922-2.5v5.05C33.8,47.737,34.789,46.659,34.789,45.411Z" fill="#f4dd45"/>
    <path d="M102.7,91.581l2.5,2.327a10.16,10.16,0,0,1-7.346,3.176,10.433,10.433,0,0,1-9.787-7.148H85.793V87.922h1.872c-.028-.312-.057-.624-.057-.936a10.31,10.31,0,0,1,.085-1.333h-1.9V83.639H88.2a10.392,10.392,0,0,1,9.645-6.723,10.243,10.243,0,0,1,7.346,3.149l-2.524,2.354a6.408,6.408,0,0,0-4.822-2.269,6.668,6.668,0,0,0-5.759,3.489h7.432v2.014h-8.17a6.854,6.854,0,0,0-.141,1.333c0,.312.028.624.056.936h8.255v2.014H91.863a6.756,6.756,0,0,0,5.986,3.914A6.467,6.467,0,0,0,102.7,91.581Z" fill="#f4dd45"/>
    <path d="M64.274,39.636h-2.1a1.75,1.75,0,0,1,0-3.5h2.1a1.75,1.75,0,0,1,0,3.5Z" fill="#64d465"/>
    <path d="M64.274,45.864h-2.1a1.75,1.75,0,0,1,0-3.5h2.1a1.75,1.75,0,0,1,0,3.5Z" fill="#64d465"/>
    <path d="M63.726,88.364h2.1a1.75,1.75,0,1,1,0,3.5h-2.1a1.75,1.75,0,0,1,0-3.5Z" fill="#7fb3fa"/>
    <path d="M63.726,82.136h2.1a1.75,1.75,0,1,1,0,3.5h-2.1a1.75,1.75,0,0,1,0-3.5Z" fill="#7fb3fa"/>
  </g>
</svg>
